<svg width="25" height="27" viewBox="0 0 25 27" fill="none" xmlns="http://www.w3.org/2000/svg">
<path d="M22.6709 5.49066C22.4316 4.89364 22.0306 4.38431 21.5182 4.02637C21.0058 3.66844 20.4047 3.47781 19.79 3.47833H17.7085C17.7026 3.19108 17.5903 2.91769 17.3955 2.71674C17.2008 2.51579 16.9392 2.40326 16.6667 2.40326C16.3943 2.40326 16.1327 2.51579 15.938 2.71674C15.7432 2.91769 15.6309 3.19108 15.625 3.47833H9.375C9.3691 3.19108 9.25676 2.91769 9.06204 2.71674C8.86731 2.51579 8.6057 2.40326 8.33325 2.40326C8.06081 2.40326 7.79919 2.51579 7.60447 2.71674C7.40975 2.91769 7.2974 3.19108 7.29151 3.47833H5.2085C4.79801 3.47792 4.39147 3.56288 4.01216 3.72836C3.63284 3.89383 3.28819 4.13656 2.99793 4.44266C2.70767 4.74876 2.4775 5.11221 2.32059 5.51223C2.16368 5.91224 2.08311 6.34096 2.0835 6.77385V21.0543C2.08311 21.4872 2.16368 21.9159 2.32059 22.3159C2.4775 22.7159 2.70767 23.0794 2.99793 23.3855C3.28819 23.6916 3.63284 23.9343 4.01216 24.0998C4.39147 24.2653 4.79801 24.3502 5.2085 24.3498H19.7915C20.202 24.3502 20.6085 24.2653 20.9878 24.0998C21.3672 23.9343 21.7118 23.6916 22.0021 23.3855C22.2923 23.0794 22.5225 22.7159 22.6794 22.3159C22.8363 21.9159 22.9169 21.4872 22.9165 21.0543V6.77385C22.9172 6.33306 22.8337 5.89664 22.6709 5.49066ZM20.8335 21.0543C20.8332 21.3456 20.7234 21.625 20.528 21.831C20.3327 22.037 20.0678 22.1529 19.7915 22.1532H5.2085C4.93222 22.1529 4.66734 22.037 4.47198 21.831C4.27663 21.625 4.16676 21.3456 4.16651 21.0543V11.1677H20.8335V21.0543ZM20.8335 8.97104H4.16651V6.77385C4.16689 6.48259 4.27681 6.20339 4.47216 5.99748C4.6675 5.79158 4.93231 5.67579 5.2085 5.67552H7.29151C7.2974 5.96276 7.40975 6.23615 7.60447 6.4371C7.79919 6.63805 8.06081 6.75058 8.33325 6.75058C8.6057 6.75058 8.86731 6.63805 9.06204 6.4371C9.25676 6.23615 9.3691 5.96276 9.375 5.67552H15.625C15.6309 5.96276 15.7432 6.23615 15.938 6.4371C16.1327 6.63805 16.3943 6.75058 16.6667 6.75058C16.9392 6.75058 17.2008 6.63805 17.3955 6.4371C17.5903 6.23615 17.7026 5.96276 17.7085 5.67552H19.7915C20.0677 5.67579 20.3325 5.79158 20.5278 5.99748C20.7232 6.20339 20.8331 6.48259 20.8335 6.77385V8.97104Z" fill="black"/>
<path d="M7.29294 14.5178V14.5446C7.29294 14.5534 7.29294 14.5626 7.29538 14.5714L7.29831 14.5982C7.29831 14.6069 7.29831 14.6162 7.30173 14.6249C7.30515 14.6337 7.30417 14.643 7.30564 14.6517C7.3071 14.6605 7.30905 14.6692 7.31052 14.678C7.31198 14.6867 7.31394 14.6955 7.31589 14.7042L7.32175 14.7305C7.32175 14.7392 7.32614 14.748 7.32859 14.7562C7.33103 14.7645 7.33298 14.7737 7.33542 14.7825C7.33786 14.7913 7.34079 14.7995 7.34323 14.8082C7.34568 14.817 7.34861 14.8252 7.35154 14.8335L7.36032 14.8587L7.37009 14.8834C7.37302 14.8917 7.37644 14.8999 7.37986 14.9081L7.3906 14.9329L7.40183 14.9571L7.41355 14.9807L7.42575 15.0044L7.43845 15.0276C7.44284 15.0353 7.44724 15.0431 7.45212 15.0508L7.46579 15.0734L7.47995 15.0956L7.49509 15.1172L7.51072 15.1388C7.5156 15.146 7.52097 15.1527 7.52634 15.1599C7.53171 15.1671 7.53757 15.1738 7.54294 15.1805L7.56003 15.2011L7.57712 15.2207L7.59519 15.2403C7.60154 15.2464 7.60739 15.2531 7.61374 15.2588C7.62009 15.2645 7.62595 15.2717 7.6323 15.2773L7.65183 15.2954L7.67136 15.3129L7.69138 15.3293L7.71189 15.3458L7.73239 15.3618L7.75339 15.3767L7.77487 15.3911L7.79685 15.4056L7.81882 15.4189L7.84128 15.4318L7.86374 15.4442L7.88669 15.456L7.91013 15.4673L7.93357 15.4776L7.957 15.4879L7.98093 15.4972L8.00486 15.506L8.02927 15.5142L8.05368 15.5214L8.07859 15.5286L8.10349 15.5348L8.12839 15.5405L8.15329 15.5456L8.17868 15.5497L8.20407 15.5533L8.22946 15.5564L8.25486 15.559H8.28025H8.30613H8.35739H8.38327H8.40866L8.43405 15.5564L8.45993 15.5533L8.48484 15.5497L8.51023 15.5456L8.53562 15.5405L8.56003 15.5348L8.58493 15.5286L8.60984 15.5214L8.63425 15.5142L8.65866 15.506L8.68259 15.4972L8.70652 15.4879L8.73044 15.4776L8.75388 15.4673L8.77683 15.456L8.79978 15.4442L8.82224 15.4318L8.8447 15.4189L8.86667 15.4056L8.88864 15.3911L8.91013 15.3767L8.93113 15.3618L8.95212 15.3458L8.97214 15.3293L8.99216 15.3129L9.01218 15.2954L9.03122 15.2773C9.03757 15.2717 9.04392 15.265 9.04978 15.2588C9.05564 15.2526 9.06247 15.2464 9.06833 15.2403L9.0864 15.2207L9.10398 15.2011L9.12058 15.1805C9.12644 15.1738 9.13181 15.1671 9.13718 15.1599L9.15329 15.1388L9.16843 15.1172L9.18357 15.0956L9.19773 15.0734L9.21189 15.0508L9.22507 15.0276C9.22946 15.0199 9.23386 15.0122 9.23777 15.0044C9.24167 14.9967 9.24607 14.9885 9.24997 14.9807C9.25426 14.9731 9.25817 14.9652 9.26169 14.9571L9.27292 14.9329C9.27683 14.9246 9.28025 14.9164 9.28366 14.9081L9.29392 14.8834L9.3032 14.8587L9.31198 14.8335C9.31491 14.8252 9.31784 14.8165 9.32029 14.8082C9.32273 14.8 9.32566 14.7907 9.3281 14.7825L9.33542 14.7562C9.33542 14.748 9.33982 14.7392 9.34177 14.7305L9.34763 14.7042C9.34763 14.6955 9.35154 14.6867 9.353 14.678C9.35447 14.6692 9.35642 14.6605 9.35788 14.6517C9.35935 14.643 9.36081 14.6337 9.36179 14.6249C9.36277 14.6162 9.36423 14.6069 9.3657 14.5982C9.36716 14.5894 9.3657 14.5806 9.3657 14.5714C9.3657 14.5621 9.3657 14.5534 9.36814 14.5446V14.5178C9.36814 14.5086 9.36814 14.4993 9.36814 14.4905C9.36814 14.4818 9.36814 14.4725 9.36814 14.4632C9.36814 14.454 9.36814 14.4452 9.36814 14.4365C9.36814 14.4277 9.36814 14.4184 9.36814 14.4092V14.3824C9.36814 14.3731 9.36814 14.3644 9.3657 14.3551C9.36325 14.3458 9.3657 14.3376 9.3657 14.3283C9.3657 14.3191 9.36325 14.3108 9.36179 14.3021C9.36032 14.2933 9.36179 14.284 9.35788 14.2753C9.35398 14.2665 9.35495 14.2578 9.353 14.2485C9.35105 14.2393 9.34958 14.231 9.34763 14.2223L9.34177 14.196C9.34177 14.1878 9.33738 14.179 9.33542 14.1703L9.3281 14.1445C9.3281 14.1358 9.32322 14.1275 9.32029 14.1188C9.31736 14.11 9.31491 14.1018 9.31198 14.0935L9.3032 14.0683L9.29392 14.0431L9.28366 14.0183C9.28025 14.0106 9.27683 14.0024 9.27292 13.9941C9.26902 13.9859 9.2656 13.9777 9.26169 13.9699C9.25828 13.9618 9.25436 13.9539 9.24997 13.9463C9.24607 13.938 9.24216 13.9303 9.23777 13.9226C9.23337 13.9148 9.22946 13.9066 9.22507 13.8994L9.21189 13.8762C9.20749 13.8685 9.20261 13.8613 9.19773 13.8536L9.18357 13.8314C9.17868 13.8242 9.1738 13.8165 9.16843 13.8093L9.15329 13.7882L9.13718 13.7671L9.12058 13.746L9.10398 13.7259L9.0864 13.7058L9.06833 13.6867C9.06247 13.68 9.05613 13.6739 9.04978 13.6677L9.03122 13.6491L9.01218 13.6316L8.99216 13.6141L8.97214 13.5971L8.95212 13.5812L8.93113 13.5652L8.91013 13.5503L8.88864 13.5353L8.86667 13.5214L8.8447 13.5081L8.82224 13.4952L8.79978 13.4823L8.77683 13.471L8.75388 13.4597L8.73044 13.4488L8.70652 13.4391L8.68259 13.4298L8.65866 13.421L8.63425 13.4128L8.60984 13.4051L8.58493 13.3984L8.56003 13.3922L8.53562 13.3865L8.51023 13.3814L8.48484 13.3773L8.45993 13.3731L8.43405 13.3701H8.40866H8.38327H8.35739H8.30613H8.28025H8.25486H8.22946L8.20407 13.3731L8.17868 13.3773L8.15329 13.3814L8.12839 13.3865L8.10349 13.3922L8.07859 13.3984L8.05368 13.4051L8.02927 13.4128L8.00486 13.421L7.98093 13.4298L7.957 13.4391L7.93357 13.4488L7.91013 13.4597L7.88669 13.471L7.86374 13.4823L7.84128 13.4952L7.81882 13.5081L7.79685 13.5214L7.77487 13.5353L7.75339 13.5503L7.73239 13.5652L7.71189 13.5812L7.69138 13.5971L7.67136 13.6141L7.65183 13.6316L7.6323 13.6491L7.61374 13.6677L7.59519 13.6867L7.57712 13.7058L7.56003 13.7259L7.54294 13.746L7.52634 13.7671C7.52097 13.7738 7.5156 13.781 7.51072 13.7882C7.50583 13.7954 7.49997 13.8021 7.49509 13.8093L7.47995 13.8314L7.46579 13.8536L7.45212 13.8762C7.44724 13.884 7.44284 13.8917 7.43845 13.8994C7.43405 13.9071 7.43015 13.9148 7.42575 13.9226C7.42136 13.9303 7.41745 13.938 7.41355 13.9463L7.40183 13.9699C7.39792 13.9777 7.39402 13.9859 7.3906 13.9941C7.38718 14.0024 7.38327 14.0106 7.37986 14.0183C7.37644 14.0261 7.37302 14.0348 7.37009 14.0431C7.36716 14.0513 7.36374 14.0601 7.36032 14.0683L7.35154 14.0935C7.34861 14.1018 7.34616 14.1105 7.34323 14.1188C7.3403 14.127 7.33786 14.1358 7.33542 14.1445C7.33298 14.1533 7.33054 14.1615 7.32859 14.1703C7.32663 14.179 7.3237 14.1878 7.32175 14.196L7.31589 14.2223C7.31589 14.231 7.31247 14.2398 7.31052 14.2485C7.30857 14.2573 7.3071 14.2665 7.30564 14.2753C7.30417 14.284 7.3032 14.2928 7.30173 14.3021C7.30027 14.3113 7.30173 14.3196 7.29831 14.3283L7.29538 14.3551C7.29538 14.3644 7.29538 14.3731 7.29294 14.3824V14.4092C7.29294 14.4184 7.29294 14.4272 7.29294 14.4365C7.29294 14.4457 7.29294 14.4545 7.29294 14.4632C7.29294 14.472 7.29294 14.4818 7.29294 14.4905C7.29294 14.4993 7.29245 14.5086 7.29294 14.5178Z" fill="black"/>
<path d="M11.4595 14.5178C11.4595 14.5266 11.4595 14.5353 11.4595 14.5446C11.4595 14.5539 11.4595 14.5626 11.4595 14.5714L11.4624 14.5981C11.4624 14.6069 11.4624 14.6162 11.4658 14.6249L11.4702 14.6517L11.4746 14.678C11.4746 14.6867 11.4785 14.6955 11.48 14.7042C11.4815 14.713 11.4839 14.7217 11.4863 14.7305C11.4888 14.7392 11.4902 14.748 11.4927 14.7562L11.5 14.7825L11.5073 14.8082L11.5161 14.8335C11.5186 14.842 11.5216 14.8505 11.5249 14.8587C11.5278 14.8669 11.5308 14.8752 11.5342 14.8834L11.5444 14.9081L11.5547 14.9328C11.5586 14.9406 11.562 14.9488 11.5659 14.957L11.5776 14.9807L11.5899 15.0044C11.5942 15.0121 11.5986 15.0199 11.6025 15.0276L11.6162 15.0508L11.6299 15.0734L11.6445 15.0956L11.6592 15.1172L11.6748 15.1388L11.6909 15.1599L11.707 15.1805L11.7241 15.2011L11.7417 15.2207L11.7598 15.2403C11.7656 15.2464 11.7715 15.2531 11.7778 15.2588L11.7969 15.2773L11.8159 15.2953L11.8355 15.3129L11.8555 15.3293L11.876 15.3458L11.8965 15.3618L11.918 15.3767C11.9248 15.3819 11.9321 15.3865 11.9395 15.3911C11.9468 15.3958 11.9536 15.4009 11.9609 15.4055L11.9829 15.4189L12.0054 15.4318L12.0283 15.4442L12.0513 15.456L12.0742 15.4673L12.0977 15.4776L12.1211 15.4879L12.145 15.4972L12.1694 15.506L12.1934 15.5142L12.2183 15.5214L12.2427 15.5286L12.2676 15.5348L12.2925 15.5405L12.3179 15.5456L12.3428 15.5497L12.3682 15.5533L12.3936 15.5564L12.419 15.559H12.4448H12.4702H12.522H12.5474H12.5733L12.5986 15.5564L12.624 15.5533L12.6494 15.5497L12.6743 15.5456L12.6997 15.5405L12.7246 15.5348L12.7495 15.5286L12.7739 15.5214L12.7984 15.5142L12.8228 15.506L12.8467 15.4972L12.8706 15.4879L12.8945 15.4776L12.918 15.4673L12.9409 15.456L12.9639 15.4442L12.9868 15.4318L13.0088 15.4189L13.0313 15.4055C13.0386 15.4009 13.0459 15.3963 13.0527 15.3911C13.0596 15.386 13.0674 15.3819 13.0742 15.3767L13.0952 15.3618L13.1162 15.3458L13.1367 15.3293L13.1567 15.3129L13.1763 15.2953L13.1953 15.2773L13.2144 15.2588C13.2207 15.2531 13.2266 15.2464 13.2324 15.2403L13.2505 15.2207L13.2681 15.2011L13.2852 15.1805L13.3013 15.1599L13.3174 15.1388L13.333 15.1172L13.3477 15.0956L13.3623 15.0734L13.376 15.0508C13.3804 15.043 13.3853 15.0353 13.3892 15.0276L13.4024 15.0044L13.4146 14.9807L13.4263 14.957C13.4302 14.9488 13.4336 14.9406 13.437 14.9328C13.4404 14.9251 13.4443 14.9164 13.4478 14.9081L13.458 14.8834C13.4614 14.8752 13.4644 14.8669 13.4673 14.8587C13.4707 14.8505 13.4736 14.842 13.4761 14.8335L13.4849 14.8082L13.4922 14.7825L13.4995 14.7562C13.502 14.748 13.5039 14.7392 13.5059 14.7305C13.5078 14.7217 13.5103 14.713 13.5122 14.7042C13.5142 14.6955 13.5156 14.6867 13.5176 14.678L13.5254 14.6522L13.5298 14.6254C13.5298 14.6167 13.5298 14.6074 13.5332 14.5987L13.5361 14.5719C13.5361 14.5631 13.5361 14.5539 13.5361 14.5451C13.5361 14.5363 13.5361 14.5271 13.5361 14.5183C13.5361 14.5096 13.5361 14.4998 13.5361 14.491V14.437C13.5361 14.4277 13.5361 14.4189 13.5361 14.4097C13.5361 14.4004 13.5361 14.3917 13.5361 14.3829C13.5361 14.3741 13.5361 14.3649 13.5361 14.3556L13.5332 14.3288C13.5332 14.3201 13.5308 14.3113 13.5298 14.3026L13.5254 14.2758L13.521 14.249C13.521 14.2403 13.5171 14.2315 13.5156 14.2228C13.5142 14.214 13.5117 14.2053 13.5093 14.1965C13.5068 14.1877 13.5054 14.1795 13.5029 14.1708L13.4956 14.145L13.4883 14.1193L13.4795 14.094C13.4771 14.0854 13.4742 14.077 13.4707 14.0688C13.4678 14.0606 13.4649 14.0518 13.4614 14.0436L13.4512 14.0188C13.4478 14.0111 13.4443 14.0029 13.4404 13.9946C13.4365 13.9864 13.4336 13.9782 13.4297 13.9704L13.418 13.9468C13.4141 13.9385 13.4097 13.9308 13.4058 13.9231L13.3926 13.8999C13.3887 13.8922 13.3838 13.8845 13.3794 13.8767L13.3657 13.8541L13.3511 13.8319L13.3364 13.8098C13.3311 13.8026 13.3262 13.7954 13.3208 13.7887L13.3047 13.7676L13.2886 13.7465L13.2715 13.7264L13.2539 13.7063L13.2359 13.6872L13.2178 13.6682L13.1987 13.6496L13.1797 13.6321L13.1602 13.6146L13.1401 13.5976L13.1196 13.5817L13.0986 13.5657C13.0918 13.5606 13.085 13.5554 13.0776 13.5508L13.0562 13.5358L13.0371 13.5194C13.0298 13.5147 13.0225 13.5101 13.0147 13.506C13.0068 13.5019 13 13.4972 12.9927 13.4931L12.9697 13.4802L12.9468 13.4689L12.9238 13.4576L12.9004 13.4468L12.8765 13.437L12.8526 13.4277L12.8286 13.419L12.8042 13.4107L12.7798 13.403L12.7554 13.3963L12.7305 13.3901L12.7056 13.3845L12.6802 13.3793L12.6553 13.3752L12.6299 13.3711L12.6045 13.368H12.5791H12.5532H12.5278H12.4761H12.4507H12.4248H12.3994L12.374 13.3711L12.3486 13.3752L12.3237 13.3793L12.2984 13.3845L12.2734 13.3901L12.2485 13.3963L12.2241 13.403L12.1992 13.4107L12.1753 13.419L12.1509 13.4277L12.127 13.437L12.1035 13.4468L12.0801 13.4576L12.0571 13.4689L12.0342 13.4802L12.0112 13.4931L11.9888 13.506L11.9629 13.5194L11.9414 13.5333L11.9199 13.5482L11.8984 13.5631L11.8779 13.5791L11.8574 13.5951L11.8374 13.6121L11.8179 13.6296L11.7988 13.6471L11.7798 13.6656L11.7617 13.6847L11.7437 13.7037L11.7261 13.7238L11.709 13.7439L11.6929 13.765L11.6768 13.7861C11.6714 13.7928 11.6665 13.8 11.6611 13.8072L11.6465 13.8294L11.6318 13.8515L11.6182 13.8742L11.6045 13.8973L11.5918 13.9205C11.5879 13.9282 11.5835 13.9359 11.5796 13.9442L11.5679 13.9679C11.564 13.9756 11.5606 13.9838 11.5567 13.9921L11.5464 14.0163L11.5361 14.041C11.5327 14.0492 11.5298 14.058 11.5269 14.0662C11.5234 14.0744 11.5205 14.0829 11.5181 14.0915L11.5093 14.1167L11.502 14.1424L11.4946 14.1682C11.4946 14.1769 11.4902 14.1857 11.4883 14.1939C11.4863 14.2022 11.4839 14.2114 11.4819 14.2202C11.48 14.2289 11.4785 14.2377 11.4766 14.2464L11.4722 14.2732L11.4678 14.3C11.4678 14.3088 11.4653 14.3175 11.4644 14.3263L11.4614 14.353C11.4614 14.3623 11.4614 14.3711 11.4614 14.3803C11.4614 14.3896 11.4614 14.3983 11.4614 14.4071C11.4614 14.4159 11.4614 14.4251 11.4614 14.4344V14.4885C11.459 14.4977 11.459 14.5085 11.4595 14.5178Z" fill="black"/>
<path d="M15.625 14.5178V14.5446C15.625 14.5534 15.625 14.5626 15.625 14.5714L15.6279 14.5982C15.6279 14.6069 15.6279 14.6162 15.6318 14.6249C15.6357 14.6337 15.6343 14.643 15.6357 14.6517C15.6372 14.6605 15.6387 14.6692 15.6406 14.678C15.6426 14.6867 15.644 14.6955 15.646 14.7042L15.6519 14.7305C15.6519 14.7392 15.6562 14.748 15.6582 14.7562L15.6655 14.7825C15.668 14.7907 15.6704 14.7995 15.6733 14.8082C15.6763 14.817 15.6787 14.8252 15.6816 14.8335L15.6904 14.8587L15.6997 14.8834L15.71 14.9081C15.7134 14.9164 15.7168 14.9246 15.7207 14.9329C15.7246 14.9411 15.728 14.9488 15.7314 14.9571C15.7349 14.9653 15.7393 14.973 15.7437 14.9807C15.748 14.9885 15.7515 14.9967 15.7559 15.0044C15.7603 15.0122 15.7642 15.0199 15.7686 15.0276L15.7817 15.0508L15.7959 15.0734L15.8101 15.0956L15.8252 15.1172L15.8403 15.1388L15.8564 15.1599C15.8618 15.1671 15.8672 15.1738 15.873 15.1805L15.8896 15.2011L15.9072 15.2207L15.9253 15.2403C15.9312 15.2464 15.9375 15.2531 15.9438 15.2588C15.9502 15.2645 15.9561 15.2717 15.9624 15.2773L15.9814 15.2954L16.0015 15.3129L16.0215 15.3293L16.0415 15.3458L16.0625 15.3618L16.0835 15.3767L16.105 15.3911L16.127 15.4056L16.1489 15.4189L16.1714 15.4318L16.1938 15.4442L16.2168 15.456L16.2397 15.4673L16.2632 15.4776L16.2871 15.4879L16.311 15.4972L16.335 15.506L16.3594 15.5142L16.3838 15.5214L16.4087 15.5286L16.4331 15.5348L16.458 15.5405L16.4834 15.5456L16.5088 15.5497L16.5337 15.5533L16.5596 15.5564L16.585 15.559H16.6104H16.6362H16.6875H16.7134H16.7388L16.7642 15.5564L16.7896 15.5533L16.8149 15.5497L16.8403 15.5456L16.8652 15.5405L16.8901 15.5348L16.915 15.5286L16.9399 15.5214L16.9644 15.5142L16.9888 15.506L17.0127 15.4972L17.0366 15.4879L17.0601 15.4776L17.0835 15.4673L17.1069 15.456L17.1299 15.4442L17.1523 15.4318L17.1748 15.4189L17.1968 15.4056L17.2188 15.3911L17.2402 15.3767L17.2612 15.3618L17.2817 15.3458L17.3022 15.3293L17.3223 15.3129L17.3418 15.2954L17.3613 15.2773L17.3799 15.2588C17.3862 15.2531 17.3921 15.2464 17.3984 15.2403C17.4048 15.2341 17.4106 15.2274 17.416 15.2207L17.4336 15.2011L17.4507 15.1805C17.4561 15.1738 17.4619 15.1671 17.4673 15.1599C17.4727 15.1527 17.478 15.146 17.4829 15.1388L17.4985 15.1172L17.5137 15.0956L17.5278 15.0734L17.5415 15.0508C17.5464 15.0431 17.5508 15.0353 17.5552 15.0276L17.5679 15.0044L17.5801 14.9807L17.5918 14.9571L17.603 14.9329L17.6138 14.9081C17.6172 14.8999 17.6206 14.8917 17.6235 14.8834L17.6333 14.8587L17.6421 14.8335C17.645 14.8252 17.6475 14.8165 17.6504 14.8082C17.6533 14.8 17.6558 14.7907 17.6582 14.7825C17.6606 14.7743 17.6631 14.765 17.665 14.7562C17.667 14.7475 17.6699 14.7392 17.6719 14.7305L17.6777 14.7042C17.6777 14.6955 17.6812 14.6867 17.6831 14.678C17.6851 14.6692 17.6865 14.6605 17.688 14.6517C17.6895 14.643 17.688 14.6337 17.6919 14.6249C17.6958 14.6162 17.6943 14.6069 17.6953 14.5982L17.6982 14.5714C17.6982 14.5626 17.6982 14.5534 17.7007 14.5446V14.5178C17.7007 14.5086 17.7007 14.4993 17.7007 14.4905C17.7007 14.4818 17.7007 14.4725 17.7007 14.4632C17.7007 14.454 17.7007 14.4452 17.7007 14.4365C17.7007 14.4277 17.7007 14.4184 17.7007 14.4092V14.3824C17.7007 14.3731 17.7007 14.3644 17.6982 14.3551L17.6953 14.3283C17.6953 14.3196 17.6953 14.3108 17.6919 14.3021C17.6885 14.2933 17.6895 14.284 17.688 14.2753C17.6865 14.2665 17.6846 14.2578 17.6831 14.2485C17.6816 14.2393 17.6797 14.231 17.6777 14.2223L17.6719 14.196C17.6719 14.1878 17.6675 14.179 17.665 14.1703C17.6626 14.1615 17.6606 14.1527 17.6582 14.1445C17.6558 14.1363 17.6528 14.1275 17.6504 14.1188C17.6479 14.11 17.645 14.1018 17.6421 14.0935L17.6333 14.0683C17.6299 14.0601 17.627 14.0513 17.6235 14.0431C17.6201 14.0348 17.6172 14.0266 17.6138 14.0183C17.6104 14.0101 17.6064 14.0024 17.603 13.9941C17.5996 13.9859 17.5957 13.9777 17.5918 13.9699L17.5801 13.9463C17.5762 13.938 17.5718 13.9303 17.5679 13.9226C17.564 13.9148 17.5596 13.9066 17.5552 13.8994C17.5508 13.8922 17.5464 13.884 17.5415 13.8762L17.5278 13.8536L17.5137 13.8314L17.4985 13.8093C17.4937 13.8021 17.4883 13.7949 17.4829 13.7882C17.4775 13.7815 17.4727 13.7738 17.4673 13.7671L17.4507 13.746L17.4336 13.7259C17.4282 13.7192 17.4219 13.7125 17.416 13.7058L17.3984 13.6867L17.3799 13.6677L17.3613 13.6491L17.3418 13.6316L17.3223 13.6141L17.3022 13.5971L17.2817 13.5812L17.2612 13.5652L17.2402 13.5503L17.2188 13.5353L17.1968 13.5214L17.1748 13.5081L17.1523 13.4952L17.1299 13.4823L17.1069 13.471L17.0835 13.4597L17.0601 13.4488L17.0366 13.4391L17.0127 13.4298L16.9888 13.421L16.9644 13.4128L16.9399 13.4051L16.915 13.3984L16.8901 13.3922L16.8652 13.3865L16.8403 13.3814L16.8149 13.3773L16.7896 13.3731L16.7642 13.3701H16.7388H16.7134H16.6875H16.6362H16.6104H16.585H16.5596L16.5337 13.3731L16.5088 13.3773L16.4834 13.3814L16.458 13.3865L16.4331 13.3922L16.4087 13.3984L16.3838 13.4051L16.3594 13.4128L16.335 13.421L16.311 13.4298L16.2871 13.4391L16.2632 13.4488L16.2397 13.4597L16.2168 13.471L16.1938 13.4823L16.1714 13.4952L16.1489 13.5081L16.127 13.5214L16.105 13.5353L16.0835 13.5503L16.0625 13.5652L16.0415 13.5812L16.0215 13.5971L16.0015 13.6141L15.9814 13.6316L15.9624 13.6491L15.9438 13.6677C15.9375 13.6739 15.9312 13.68 15.9253 13.6867L15.9072 13.7058L15.8896 13.7259L15.873 13.746L15.8564 13.7671L15.8403 13.7882L15.8252 13.8093C15.8198 13.8165 15.8149 13.8242 15.8101 13.8314L15.7959 13.8536C15.791 13.8613 15.7861 13.8685 15.7817 13.8762L15.7686 13.8994C15.7642 13.9066 15.7598 13.9148 15.7559 13.9226C15.752 13.9303 15.7476 13.938 15.7437 13.9463C15.7397 13.9545 15.7354 13.9617 15.7314 13.9699C15.7275 13.9782 15.7241 13.9859 15.7207 13.9941C15.7173 14.0024 15.7134 14.0106 15.71 14.0183L15.6997 14.0431L15.6904 14.0683L15.6816 14.0935C15.6787 14.1018 15.6758 14.1105 15.6733 14.1188C15.6709 14.127 15.668 14.1358 15.6655 14.1445L15.6582 14.1703C15.6582 14.179 15.6538 14.1878 15.6519 14.196L15.646 14.2223C15.646 14.231 15.6421 14.2398 15.6406 14.2485C15.6392 14.2573 15.6372 14.2665 15.6357 14.2753C15.6343 14.284 15.6328 14.2928 15.6318 14.3021C15.6309 14.3113 15.6294 14.3196 15.6279 14.3283L15.625 14.3551C15.625 14.3644 15.625 14.3731 15.625 14.3824V14.4092C15.625 14.4184 15.625 14.4272 15.625 14.4365C15.625 14.4457 15.625 14.4545 15.625 14.4632C15.625 14.472 15.625 14.4818 15.625 14.4905C15.625 14.4993 15.625 14.5086 15.625 14.5178Z" fill="black"/>
<path d="M7.29294 18.9117V18.9384C7.29294 18.9477 7.29294 18.9565 7.29538 18.9652L7.29831 18.9925C7.29831 19.0013 7.29831 19.01 7.30173 19.0188C7.30515 19.0275 7.30417 19.0368 7.30564 19.0456C7.3071 19.0543 7.30905 19.0631 7.31052 19.0723C7.31198 19.0816 7.31394 19.0898 7.31589 19.0986L7.32175 19.1243C7.32175 19.1331 7.32614 19.1418 7.32859 19.1506C7.33103 19.1593 7.33298 19.1681 7.33542 19.1763C7.33786 19.1846 7.34079 19.1933 7.34323 19.2021C7.34568 19.2108 7.34861 19.2191 7.35154 19.2273L7.36032 19.2526C7.36374 19.2608 7.36667 19.2695 7.37009 19.2778C7.37351 19.286 7.37644 19.2943 7.37986 19.3025C7.38327 19.3107 7.38718 19.3185 7.3906 19.3267C7.39402 19.3349 7.39792 19.3432 7.40183 19.3509L7.41355 19.3746C7.41745 19.3828 7.42185 19.3906 7.42575 19.3983L7.43845 19.4214L7.45163 19.4446L7.46579 19.4673L7.47995 19.4894L7.49509 19.5116C7.49997 19.5188 7.50534 19.526 7.51072 19.5327C7.51609 19.5394 7.52097 19.5471 7.52634 19.5538L7.54294 19.5749L7.56003 19.595C7.5654 19.6017 7.57126 19.6084 7.57712 19.6145L7.59519 19.6341L7.61374 19.6532L7.6323 19.6717L7.65183 19.6892L7.67136 19.7067L7.69138 19.7237L7.71189 19.7397L7.73239 19.7556L7.75339 19.7706L7.77487 19.7855L7.79685 19.7994L7.81882 19.8128L7.84128 19.8257C7.84856 19.8302 7.85606 19.8343 7.86374 19.838L7.88669 19.8499L7.91013 19.8612L7.93357 19.872L7.957 19.8818L7.98093 19.8911L8.00486 19.8998L8.02927 19.9081L8.05368 19.9158L8.07859 19.9225L8.10349 19.9286L8.12839 19.9343L8.15329 19.9395L8.17868 19.9436L8.20407 19.9477L8.22946 19.9508H8.25486H8.28025H8.30613H8.35739H8.38327H8.40866H8.43405L8.45993 19.9477L8.48484 19.9436L8.51023 19.9395L8.53562 19.9343L8.56052 19.9286L8.58493 19.9225L8.60984 19.9158L8.63425 19.9081L8.65866 19.8998L8.68259 19.8911L8.70652 19.8818L8.73044 19.872L8.75388 19.8612L8.77683 19.8499L8.79978 19.838C8.80751 19.8344 8.81501 19.8303 8.82224 19.8257L8.8447 19.8128L8.86667 19.7994L8.88864 19.7855L8.91013 19.7706L8.93113 19.7556L8.95212 19.7397L8.97214 19.7237L8.99216 19.7067L9.01218 19.6892L9.03122 19.6717L9.04978 19.6532C9.05613 19.647 9.06247 19.6408 9.06833 19.6341C9.07419 19.6274 9.08054 19.6212 9.0864 19.6145L9.10398 19.595L9.12058 19.5749L9.13718 19.5538L9.15329 19.5327L9.16843 19.5116C9.1738 19.5043 9.17868 19.4966 9.18357 19.4894L9.19773 19.4673C9.20261 19.4596 9.20749 19.4523 9.21189 19.4446L9.22507 19.4214C9.22946 19.4137 9.23386 19.406 9.23777 19.3983C9.24167 19.3906 9.24607 19.3828 9.24997 19.3746C9.25388 19.3663 9.25827 19.3591 9.26218 19.3509C9.26609 19.3427 9.2695 19.3349 9.27292 19.3267C9.27634 19.3185 9.28025 19.3102 9.28366 19.3025L9.29392 19.2778L9.3032 19.2526L9.31198 19.2273C9.31491 19.2191 9.31784 19.2103 9.32029 19.2021C9.32273 19.1938 9.32566 19.1851 9.3281 19.1763L9.33542 19.1506C9.33542 19.1418 9.33982 19.1331 9.34177 19.1243L9.34763 19.0986C9.34763 19.0898 9.35154 19.0811 9.353 19.0723C9.35447 19.0636 9.35642 19.0543 9.35788 19.0456C9.35935 19.0368 9.36081 19.028 9.36179 19.0188C9.36277 19.0095 9.36423 19.0013 9.3657 18.9925L9.36862 18.9652C9.36862 18.9565 9.36862 18.9477 9.36862 18.9384V18.9117C9.36862 18.9024 9.36862 18.8936 9.36862 18.8844C9.36862 18.8751 9.36862 18.8664 9.36862 18.8576C9.36862 18.8488 9.36862 18.8391 9.36862 18.8303C9.36862 18.8216 9.36862 18.8123 9.36862 18.803V18.7762C9.36862 18.7675 9.36862 18.7582 9.36862 18.7495L9.3657 18.7227C9.3657 18.7134 9.36325 18.7047 9.36179 18.6959C9.36032 18.6872 9.36179 18.6779 9.35788 18.6691C9.35398 18.6604 9.35495 18.6516 9.353 18.6429C9.35105 18.6341 9.34958 18.6254 9.34763 18.6166L9.34177 18.5904C9.34177 18.5816 9.33738 18.5728 9.33542 18.5641L9.3281 18.5383C9.3281 18.5301 9.32322 18.5214 9.32029 18.5126C9.31736 18.5038 9.31491 18.4956 9.31198 18.4874L9.3032 18.4621L9.29392 18.4374L9.28366 18.4127C9.28025 18.4045 9.27683 18.3962 9.27292 18.388C9.26902 18.3798 9.2656 18.372 9.26218 18.3638C9.25876 18.3555 9.25437 18.3478 9.24997 18.3401C9.24558 18.3324 9.24216 18.3241 9.23777 18.3164C9.23337 18.3087 9.22946 18.301 9.22507 18.2932L9.21189 18.2701L9.19773 18.2474L9.18357 18.2253L9.16843 18.2036L9.15329 18.182L9.13718 18.1609C9.13181 18.1537 9.12644 18.147 9.12058 18.1403L9.10398 18.1197L9.0864 18.1001L9.06833 18.0806L9.04978 18.0615L9.03122 18.0435L9.01218 18.0255L8.99216 18.008L8.97214 17.9915L8.95212 17.975L8.93113 17.9591L8.91013 17.9441L8.88864 17.9292L8.86667 17.9153L8.8447 17.9019L8.82224 17.889L8.79978 17.8767L8.77683 17.8648L8.75388 17.8535L8.73044 17.8432L8.70652 17.8329L8.68259 17.8236L8.65866 17.8149L8.63425 17.8066L8.60984 17.7994L8.58493 17.7922L8.56052 17.786L8.53562 17.7804L8.51023 17.7752L8.48484 17.7711L8.45993 17.7675L8.43405 17.7644L8.40866 17.7618H8.38327H8.35739H8.30613H8.28025H8.25486L8.22946 17.7644L8.20407 17.7675L8.17868 17.7711L8.15329 17.7752L8.12839 17.7804L8.10349 17.786L8.07859 17.7922L8.05368 17.7994L8.02927 17.8066L8.00486 17.8149L7.98093 17.8236L7.957 17.8329L7.93357 17.8432L7.91013 17.8535L7.88669 17.8648L7.86374 17.8767L7.84128 17.889L7.81882 17.9019L7.79685 17.9153L7.77487 17.9292L7.75339 17.9441L7.73239 17.9591L7.71189 17.975L7.69138 17.9915L7.67136 18.008L7.65183 18.0255L7.6323 18.0435L7.61374 18.0615L7.59519 18.0806L7.57712 18.1001C7.57126 18.1068 7.5654 18.113 7.56003 18.1197L7.54294 18.1403C7.53757 18.147 7.53171 18.1537 7.52634 18.1609C7.52097 18.1681 7.5156 18.1748 7.51072 18.182L7.49509 18.2036L7.47995 18.2253L7.46579 18.2474C7.46091 18.2551 7.45652 18.2629 7.45163 18.2701L7.43845 18.2932L7.42575 18.3164C7.42185 18.3241 7.41745 18.3319 7.41355 18.3401L7.40183 18.3638L7.3906 18.388L7.37986 18.4127C7.37644 18.4204 7.37302 18.4292 7.37009 18.4374L7.36032 18.4621L7.35154 18.4874C7.34861 18.4956 7.34616 18.5044 7.34323 18.5126C7.3403 18.5208 7.33786 18.5301 7.33542 18.5383C7.33298 18.5466 7.33054 18.5559 7.32859 18.5641C7.32663 18.5723 7.3237 18.5816 7.32175 18.5904L7.31589 18.6166C7.31589 18.6254 7.31247 18.6341 7.31052 18.6429C7.30857 18.6516 7.3071 18.6604 7.30564 18.6691C7.30417 18.6779 7.3032 18.6872 7.30173 18.6959C7.30027 18.7047 7.30173 18.7134 7.29831 18.7227L7.29538 18.7495C7.29538 18.7582 7.29538 18.7675 7.29294 18.7762V18.803C7.29294 18.8123 7.29294 18.8216 7.29294 18.8303C7.29294 18.8391 7.29294 18.8483 7.29294 18.8576C7.29294 18.8669 7.29294 18.8756 7.29294 18.8844C7.29294 18.8931 7.29245 18.9024 7.29294 18.9117Z" fill="black"/>
<path d="M11.4594 18.9117C11.4594 18.9205 11.4594 18.9297 11.4594 18.9385C11.4594 18.9472 11.4594 18.9565 11.4594 18.9652L11.4624 18.9925C11.4624 19.0013 11.4624 19.01 11.4658 19.0188L11.4702 19.0456L11.4746 19.0724C11.4746 19.0811 11.4785 19.0899 11.4799 19.0986C11.4814 19.1074 11.4838 19.1161 11.4863 19.1244C11.4887 19.1326 11.4902 19.1419 11.4926 19.1506L11.5 19.1764L11.5073 19.2021L11.5161 19.2273C11.5185 19.2359 11.5214 19.2444 11.5249 19.2526C11.5278 19.2608 11.5307 19.2696 11.5341 19.2778L11.5444 19.3025L11.5546 19.3267C11.5586 19.335 11.562 19.3432 11.5659 19.3509L11.5776 19.3746C11.5815 19.3829 11.5859 19.3906 11.5898 19.3983C11.5937 19.406 11.5986 19.4137 11.6025 19.4215L11.6162 19.4446L11.6298 19.4673L11.6445 19.4894L11.6591 19.5116C11.6645 19.5188 11.6694 19.526 11.6748 19.5327L11.6909 19.5538L11.707 19.5749L11.7241 19.595L11.7417 19.6146C11.7475 19.6213 11.7534 19.628 11.7597 19.6341L11.7778 19.6532L11.7968 19.6717L11.8159 19.6892L11.8354 19.7067L11.8554 19.7237L11.8759 19.7397L11.8964 19.7557L11.9179 19.7706L11.9394 19.7855L11.9609 19.7994L11.9829 19.8128L12.0053 19.8257C12.0128 19.8302 12.0204 19.8343 12.0283 19.838L12.0512 19.8499L12.0742 19.8612L12.0976 19.872L12.1211 19.8818L12.145 19.8911L12.1694 19.8998L12.1933 19.9081L12.2182 19.9158L12.2426 19.9225L12.2675 19.9287L12.2924 19.9343L12.3178 19.9395L12.3427 19.9436L12.3681 19.9477L12.3935 19.9508H12.4189H12.4448H12.4702H12.5219H12.5473H12.5727H12.5986L12.624 19.9477L12.6494 19.9436L12.6743 19.9395L12.6997 19.9343L12.7246 19.9287L12.7495 19.9225L12.7739 19.9158L12.7983 19.9081L12.8227 19.8998L12.8466 19.8911L12.8706 19.8818L12.8945 19.872L12.9179 19.8612L12.9409 19.8499L12.9638 19.838C12.9717 19.8343 12.9793 19.8302 12.9868 19.8257C12.9941 19.8216 13.0019 19.8175 13.0088 19.8128C13.0156 19.8082 13.0239 19.8041 13.0312 19.7994L13.0527 19.7855L13.0742 19.7706C13.0815 19.766 13.0883 19.7608 13.0952 19.7557L13.1162 19.7397L13.1367 19.7237L13.1567 19.7067L13.1762 19.6892L13.1953 19.6717L13.2143 19.6532L13.2324 19.6341C13.2387 19.628 13.2446 19.6213 13.2505 19.6146L13.268 19.595L13.2851 19.5749L13.3012 19.5538L13.3173 19.5327C13.3227 19.526 13.3276 19.5188 13.333 19.5116L13.3476 19.4894L13.3623 19.4673L13.3759 19.4446C13.3803 19.4369 13.3852 19.4292 13.3891 19.4215L13.4023 19.3983C13.4062 19.3906 13.4106 19.3829 13.4145 19.3746L13.4262 19.3509C13.4301 19.3432 13.4336 19.335 13.437 19.3267C13.4404 19.3185 13.4443 19.3102 13.4477 19.3025L13.458 19.2778C13.4614 19.2696 13.4643 19.2608 13.4672 19.2526C13.4707 19.2444 13.4736 19.2359 13.476 19.2273L13.4848 19.2021L13.4922 19.1764L13.4995 19.1506C13.5019 19.1419 13.5039 19.1331 13.5058 19.1244C13.5078 19.1156 13.5102 19.1074 13.5122 19.0986C13.5141 19.0899 13.5156 19.0811 13.5175 19.0724L13.5219 19.0456L13.5263 19.0188C13.5263 19.01 13.5263 19.0013 13.5297 18.9925L13.5327 18.9652C13.5327 18.9565 13.5327 18.9477 13.5327 18.9385C13.5327 18.9292 13.5327 18.9205 13.5327 18.9117C13.5327 18.9029 13.5327 18.8937 13.5327 18.8844V18.8303C13.5327 18.8216 13.5327 18.8123 13.5327 18.803C13.5327 18.7938 13.5327 18.7855 13.5327 18.7763C13.5327 18.767 13.5327 18.7582 13.5327 18.7495L13.5297 18.7227C13.5297 18.7134 13.5273 18.7047 13.5263 18.6959L13.5254 18.6687L13.521 18.6424C13.521 18.6336 13.5171 18.6249 13.5156 18.6161C13.5141 18.6074 13.5117 18.5986 13.5092 18.5899C13.5068 18.5811 13.5053 18.5724 13.5029 18.5636L13.4956 18.5379L13.4882 18.5121L13.4795 18.4869C13.477 18.4783 13.474 18.4699 13.4707 18.4617C13.4677 18.4534 13.4648 18.4452 13.4614 18.4369L13.4511 18.4122C13.4477 18.404 13.4443 18.3957 13.4404 18.3875C13.4365 18.3793 13.4336 18.3715 13.4297 18.3633L13.4179 18.3396C13.414 18.3314 13.4096 18.3237 13.4057 18.3159L13.3925 18.2928C13.3886 18.285 13.3838 18.2773 13.3794 18.2696L13.3657 18.2469L13.351 18.2248L13.3364 18.2032L13.3208 18.1815L13.3047 18.1604L13.2885 18.1398L13.2714 18.1192L13.2539 18.0997L13.2358 18.0801L13.2177 18.061L13.1987 18.043L13.1797 18.025L13.1601 18.0075L13.1401 17.991L13.1196 17.9745L13.0986 17.9586L13.0776 17.9436L13.0561 17.9287L13.0346 17.9148C13.0273 17.9102 13.02 17.9055 13.0122 17.9014L12.9902 17.8885L12.9672 17.8762L12.9443 17.8643L12.9213 17.853L12.8979 17.8427L12.874 17.8324L12.8501 17.8231L12.8261 17.8144L12.8017 17.8062L12.7773 17.7989L12.7529 17.7917L12.728 17.7856L12.7031 17.7799L12.6777 17.7747L12.6528 17.7706L12.6274 17.767L12.602 17.7639L12.5761 17.7614H12.5507H12.5254H12.4736H12.4482H12.4223L12.3969 17.7639L12.3715 17.767L12.3462 17.7706L12.3213 17.7747L12.2959 17.7799L12.271 17.7856L12.2461 17.7917L12.2216 17.7989L12.1967 17.8062L12.1728 17.8144L12.1484 17.8231L12.1245 17.8324L12.101 17.8427L12.0776 17.853L12.0546 17.8643L12.0317 17.8762L12.0088 17.8885L11.9863 17.9014L11.9643 17.9148L11.9428 17.9287L11.9213 17.9436L11.8999 17.9586L11.8794 17.9745L11.8588 17.991L11.8388 18.0075L11.8193 18.025L11.8003 18.043L11.7812 18.061L11.7631 18.0801L11.7451 18.0997L11.7275 18.1192L11.7104 18.1398L11.6943 18.1604L11.6782 18.1815L11.6626 18.2032L11.6479 18.2248L11.6333 18.2469L11.6196 18.2696L11.6059 18.2928C11.602 18.3005 11.5976 18.3082 11.5932 18.3159C11.5888 18.3237 11.5849 18.3314 11.581 18.3396L11.5693 18.3633C11.5654 18.3715 11.562 18.3798 11.5581 18.3875L11.5478 18.4122L11.5376 18.4369C11.5341 18.4452 11.5312 18.4534 11.5283 18.4617C11.5249 18.4699 11.522 18.4783 11.5195 18.4869L11.5107 18.5121L11.5034 18.5379L11.4961 18.5636C11.4961 18.5724 11.4917 18.5811 11.4897 18.5899C11.4878 18.5986 11.4853 18.6074 11.4834 18.6161C11.4814 18.6249 11.4799 18.6336 11.478 18.6424L11.4746 18.6687L11.4702 18.6954C11.4702 18.7042 11.4677 18.7129 11.4668 18.7222L11.4638 18.749C11.4638 18.7577 11.4638 18.767 11.4638 18.7758C11.4638 18.7845 11.4638 18.7938 11.4638 18.8025C11.4638 18.8113 11.4638 18.8211 11.4638 18.8298V18.8839C11.4589 18.8937 11.4589 18.9024 11.4594 18.9117Z" fill="black"/>
</svg>
